# xmcd
#
# Track frame offsets: 
#        150
#        14705
#        45712
#        61445
#        77421
#        90254
#        107002
#        124265
#        140957
#        151600
#        167670
#        182100
#        197891
#
# Disc length: 2834 seconds
#
# Revision: 1
# Processed by: cddbd v1.5.2PL0 Copyright (c) Steve Scherf et al.
# Submitted via: ExactAudioCopyFreeDBPlugin 1.0
#
DISCID=ab0b100d
DTITLE=The Slocan Ramblers - Coffee Creek
DYEAR=2015
DGENRE=Folk;Hillside
TTITLE0=Coffee Creek
TTITLE1=Pastures of Plenty - Honey Babe
TTITLE2=Galilee
TTITLE3=Call Me Long Gone
TTITLE4=Groundhog
TTITLE5=Elk River
TTITLE6=Lone Pine
TTITLE7=Rambling Sailor
TTITLE8=The Back 40
TTITLE9=Angeline
TTITLE10=Streamline Cannonball
TTITLE11=April's Waltz
TTITLE12=Mississippi Shore
EXTD=
EXTT0=
EXTT1=
EXTT2=
EXTT3=
EXTT4=
EXTT5=
EXTT6=
EXTT7=
EXTT8=
EXTT9=
EXTT10=
EXTT11=
EXTT12=
PLAYORDER=
